<svg xmlns="http://www.w3.org/2000/svg" viewBox="0 0 300 72" role="img" aria-label="声笔 VoxBrush">
  <defs>
    <linearGradient id="qg" x1="0" y1="0" x2="1" y2="1">
      <stop offset="0" stop-color="#3D7FFF"/>
      <stop offset="1" stop-color="#1A55E8"/>
    </linearGradient>
    <linearGradient id="tg" x1="0" y1="0" x2="1" y2="0">
      <stop offset="0" stop-color="#1A55E8"/>
      <stop offset="1" stop-color="#3D9BFF"/>
    </linearGradient>
  </defs>
  <g transform="translate(4 4)">
    <path d="M32 0 L56.5 14 V44 L32 58 L7.5 44 V14 Z" fill="url(#qg)"/>
    <rect x="26" y="11" width="12" height="22" rx="6" fill="#ffffff"/>
    <path d="M20 29 a12 12 0 0 0 24 0" fill="none" stroke="#ffffff" stroke-width="3.6" stroke-linecap="round"/>
    <line x1="32" y1="41.5" x2="32" y2="46" stroke="#ffffff" stroke-width="3.6" stroke-linecap="round"/>
    <path d="M32 46 C 40 46, 44 41, 49 35" fill="none" stroke="#9BE7FF" stroke-width="4" stroke-linecap="round"/>
    <path d="M44 17 a9 9 0 0 1 0 12" fill="none" stroke="#9BE7FF" stroke-width="3" stroke-linecap="round"/>
    <path d="M48.5 13.5 a14.5 14.5 0 0 1 0 19" fill="none" stroke="#9BE7FF" stroke-width="3" stroke-linecap="round" opacity="0.7"/>
  </g>
  <text x="76" y="42" font-family="'PingFang SC','Microsoft YaHei',sans-serif" font-size="30" font-weight="700" fill="url(#tg)">声笔</text>
  <text x="146" y="42" font-family="'Helvetica Neue',Arial,sans-serif" font-size="26" font-weight="600" fill="#1B3A5C">VoxBrush</text>
  <text x="76" y="62" font-family="'PingFang SC',sans-serif" font-size="12" fill="#7A93AD" letter-spacing="2">用声音，作一幅画</text>
</svg>
